<svg width="180" height="61" fill="none" xmlns="http://www.w3.org/2000/svg"><path d="M165.6 0H11.3l-3 .3c-1 .2-2 .5-2.9.9-.9.5-1.6 1-2.4 1.8A9.2 9.2 0 00.3 8.3l-.3 3V48.7l.3 3c.2 1 .5 2 .9 2.9.5 1 1 1.8 1.8 2.5a9.2 9.2 0 005.3 2.7c1 .2 2 .4 3 .4h157.3c1 0 2-.2 3-.4a9 9 0 005.2-2.7 9.2 9.2 0 002.7-5.2l.3-3v-1.4-33.2-1.7-1.3l-.3-3a9.5 9.5 0 00-8-8c-1-.1-1.9-.3-3-.3H165.7z" fill="#000"/><path d="M12.6 58.8h-1.3c-1 0-2-.2-2.9-.3L6 57.7c-.8-.4-1.5-.9-2.1-1.5a6.8 6.8 0 01-1.5-2c-.5-.8-.6-1.7-.8-2.6-.1-1-.3-1.8-.3-2.9V12.6v-1.3c0-1 .2-2 .3-2.9.2-.7.5-1.6 1-2.4.4-.7.8-1.5 1.4-2 .6-.7 1.4-1.1 2.1-1.6a16.7 16.7 0 015.4-1h157.3c1 0 1.8.1 2.9.3.9.1 1.6.4 2.5.7 1.5.8 2.9 2.1 3.6 3.6.5.8.6 1.7.8 2.4l.3 2.9v37.4c0 1-.2 1.8-.3 2.9l-.8 2.5c-.4.8-.9 1.5-1.5 2.1-.6.6-1.3 1.2-2 1.5a5 5 0 01-2.6.8c-1 .1-1.8.3-2.9.3h-156z" fill="#000"/><path d="M37.3 30.5c0-2.5 1.3-5 3.6-6.3a8 8 0 00-6-3.3c-2.6-.3-5 1.5-6.3 1.5-1.4 0-3.3-1.5-5.4-1.5a8.2 8.2 0 00-6.8 4c-2.9 5-.8 12.5 2.1 16.6 1.3 2 3 4.2 5.1 4.2 2.1-.1 2.9-1.3 5.4-1.3 2.6 0 3.2 1.3 5.4 1.3 2.3 0 3.6-2 5-4 1-1.4 1.8-3 2.3-4.7a6.7 6.7 0 01-4.4-6.5zM33 18.3a7.4 7.4 0 001.7-5.2 7 7 0 00-4.8 2.5 6.8 6.8 0 00-1.6 5.2 6 6 0 004.8-2.5zM63.6 40.8h-7l-1.7 5h-3l6.7-18.6h3L68.5 46h-3l-1.8-5.1zm-6.3-2.3H63l-2.8-8.3H60l-2.7 8.3zM83 39.1c0 4.2-2.2 7-5.7 7-1.8 0-3.5-1-4.2-2.5v6.8h-2.9v-18H73v2.2a5 5 0 014.4-2.4C80.6 32 83 34.9 83 39zm-3 0c0-2.7-1.4-4.5-3.6-4.5-2.1 0-3.6 1.8-3.6 4.5s1.5 4.5 3.6 4.5c2.2 0 3.6-1.8 3.6-4.5zM97.9 39.1c0 4.2-2.3 7-5.7 7-1.8 0-3.5-1-4.2-2.5v6.8H85v-18h2.7v2.2a5 5 0 014.4-2.4c3.4-.2 5.7 2.7 5.7 6.9zm-2.9 0c0-2.7-1.3-4.5-3.6-4.5-2 0-3.6 1.8-3.6 4.5s1.5 4.5 3.6 4.5c2.3 0 3.6-1.8 3.6-4.5zM107.8 40.6c.2 1.8 2 3 4.5 3 2.4 0 4-1.2 4-2.8 0-1.6-1-2.3-3.4-3l-2.4-.5c-3.4-1-5-2.4-5-5 0-3.1 3-5.4 6.8-5.4 4 0 6.6 2.3 6.8 5.4h-2.9c-.1-1.8-1.6-3-3.9-3-2.2 0-3.7 1.2-3.7 2.9 0 1.3 1 2 3.4 2.7l2.1.4c3.8 1 5.4 2.4 5.4 5.2 0 3.4-2.8 5.7-7.2 5.7-4.2 0-6.9-2.1-7-5.6h2.5zM125.3 29v3.2h2.5v2.2h-2.5V42c0 1.2.4 1.6 1.6 1.6h1V46l-1.6.1c-2.7 0-3.7-1-3.7-3.6v-7.8h-2v-2.3h2v-3.1h2.7V29zM129.5 39.1c0-4.2 2.5-7 6.4-7 4 0 6.5 2.8 6.5 7 0 4.4-2.6 7-6.5 7-4 0-6.4-2.8-6.4-7zm10 0c0-3-1.3-4.7-3.6-4.7-2.2 0-3.6 1.7-3.6 4.7s1.4 4.7 3.6 4.7c2.3 0 3.6-1.8 3.6-4.7zM144.7 32.2h2.7v2.4a3.1 3.1 0 013.3-2.4l.9.1V35c-.5-.2-1-.2-1.2-.2-1.5 0-2.9 1.2-2.9 2.7V46h-2.8V32.2zM164.5 41.8c-.4 2.4-2.8 4.2-5.9 4.2-3.9 0-6.4-2.7-6.4-6.9s2.4-7 6.3-7c3.8 0 6.2 2.5 6.2 6.7v.9H155v.1c-.1 2 1.2 3.7 3.2 4h.4a3 3 0 003.2-2h2.7zm-9.5-4h6.8c.2-1.9-1.3-3.4-3.2-3.5h-.3a3.4 3.4 0 00-3.3 3.4zM56.8 13c2.3 0 4.1 1.6 4.3 3.7v.7c0 2.9-1.6 4.6-4.3 4.6h-3.3v-9h3.3zM55 21h1.7c1.5.2 2.8-1 3-2.7v-.6c.1-1.5-.9-3-2.4-3.2H55V21zM62.7 18.6c-.1-1.8 1-3.3 2.9-3.4 1.8-.2 3.3 1 3.4 2.8v.6c.2 1.9-1 3.4-2.8 3.5-1.8.2-3.3-1-3.5-2.9v-.6zm5 0c0-1.5-.6-2.2-1.8-2.2-1.2 0-1.8.9-1.8 2.2 0 1.6.6 2.5 1.8 2.5 1.2 0 1.8-1 1.8-2.5zM77.6 22.1h-1.4l-1.3-5h-.2l-1.3 5H72l-1.8-6.8h1.4l1.2 5.2h.1l1.4-5.2h1.3l1.4 5.2h.1l1.2-5.2h1.4l-2.1 6.8zM81 15.3h1.4v1h.2c.3-.7 1.2-1.1 2-1.1 1.1-.2 2.2.7 2.3 2v4.9h-1.3v-4c0-1.1-.5-1.7-1.5-1.7s-1.7.6-1.7 1.5v4.3h-1.3v-6.9zM88.9 12.6h1.3v9.5H89v-9.5zM92 18.6c-.1-1.8 1-3.3 2.9-3.4 1.8-.2 3.3 1 3.4 2.8v.6c.2 1.9-1 3.4-2.8 3.5-1.8.2-3.3-1-3.5-2.9v-.6zm5.1 0c0-1.5-.6-2.2-1.8-2.2-1.2 0-1.8.9-1.8 2.2 0 1.6.6 2.5 1.8 2.5 1 0 1.8-1 1.8-2.5zM99.8 20.2c0-1.3 1-2 2.6-2l1.8-.2v-.6c0-.7-.4-1-1.3-1-.8 0-1.2.3-1.4.7h-1.3c.1-1.2 1.2-2 2.7-2 1.6 0 2.7 1 2.7 2.3v4.7h-1.4v-.9h-.1c-.5.8-1.2 1-2.1 1-1.1.2-2.2-.7-2.3-1.7l.1-.3zm4.4-.7V19l-1.6.2c-1 0-1.4.4-1.4.9 0 .6.6.9 1.2.9 1 .3 1.7-.3 1.8-1.4 0 .2 0 .2 0 0zM107.2 18.6c0-2 1-3.4 2.9-3.4.9 0 1.6.4 2 1.2h.2v-3.8h1.4v9.5h-1.4v-1h-.1c-.5.7-1.2 1.2-2.1 1.2-1.7 0-2.9-1.4-2.9-3.7zm1.5 0c0 1.6.8 2.3 1.8 2.3s1.8-.9 1.8-2.3c0-1.3-.7-2.2-1.8-2.2-1.2 0-1.8.9-1.8 2.2zM119.1 18.6c-.2-1.8 1-3.3 2.9-3.4 1.8-.2 3.3 1 3.4 2.8v.6c.2 1.9-1 3.4-2.8 3.5-1.8.2-3.4-1-3.5-2.9v-.6zm5.1 0c0-1.5-.6-2.2-1.8-2.2-1.2 0-1.8.9-1.8 2.2 0 1.6.6 2.5 1.8 2.5 1 0 1.8-1 1.8-2.5zM127.4 15.3h1.3v1h.2c.3-.7 1.2-1.1 2-1.1 1.1-.2 2.2.7 2.3 2v4.9H132v-4c0-1.1-.5-1.7-1.5-1.7s-1.7.6-1.7 1.5v4.3h-1.3v-6.9zM140.6 13.7v1.6h1.5v1.2h-1.5V20c0 .8.3 1 .9 1h.5v1.1h-.8c-1.5 0-2.1-.4-2.1-1.8v-3.8h-1v-1h1v-1.8h1.5zM144 12.6h1.3v3.8h.1a2 2 0 012.1-1.2c1.2 0 2.3.9 2.4 2v4.9h-1.3v-4c0-1.1-.5-1.7-1.5-1.7s-1.7.6-1.7 1.5v4.3h-1.3l-.2-9.6zM157.6 20.3c-.3 1.2-1.7 2.1-3 2-1.7 0-3.2-1.4-3.2-3v-.5a3 3 0 012.7-3.5h.5c2 0 3 1.4 3 3.5v.4h-4.8c-.2 1.1.6 1.9 1.6 2h.2c.6.2 1.3-.3 1.6-.7l1.4-.2zm-4.8-2.3h3.4c0-.9-.6-1.6-1.5-1.8h-.1c-1 .2-1.8 1-1.8 1.8z" fill="#fff"/></svg>